 <svg  version="1.0" xmlns="http://www.w3.org/2000/svg"  width="300.000000pt" height="300.000000pt" viewBox="0 0 300.000000 300.000000"  preserveAspectRatio="xMidYMid meet">  <g transform="translate(0.000000,300.000000) scale(0.100000,-0.100000)" fill="#9e4424" stroke="none"> <path d="M1933 2735 c-375 -68 -707 -364 -831 -742 -12 -35 -35 -163 -52 -285 -34 -237 -63 -367 -103 -467 -35 -87 -88 -171 -117 -186 -40 -21 -558 -547 -569 -578 -48 -126 54 -247 186 -222 33 6 77 46 321 288 155 155 282 286 282 292 0 14 83 69 161 105 88 41 224 74 426 105 93 14 209 33 258 44 351 73 654 330 791 669 51 128 68 223 61 366 -5 136 -30 226 -89 322 -36 60 -122 150 -182 190 -145 98 -346 135 -543 99z m334 -36 c250 -62 408 -239 452 -509 55 -336 -167 -749 -509 -950 -36 -21 -67 -38 -70 -38 -3 -1 -34 -14 -70 -30 -36 -16 -99 -37 -140 -47 -41 -9 -88 -21 -105 -25 -16 -5 -52 -12 -80 -15 -128 -16 -262 -37 -318 -51 -34 -9 -69 -17 -77 -18 -54 -10 -116 -33 -187 -72 -71 -38 -104 -66 -237 -201 -246 -252 -434 -436 -458 -450 -67 -37 -163 2 -188 76 -26 79 -18 90 282 386 149 149 289 287 310 308 31 31 70 101 118 212 10 23 46 173 55 225 3 19 7 49 10 65 3 17 12 82 21 145 36 265 75 383 181 544 91 138 289 309 429 371 21 9 51 23 66 31 14 8 35 14 45 14 10 0 23 4 29 9 18 18 151 39 252 40 74 1 128 -5 189 -20z"/> <path d="M1975 2639 c-22 -4 -53 -10 -70 -13 -46 -10 -146 -48 -190 -73 -22 -12 -51 -27 -65 -33 -37 -17 -159 -113 -211 -167 -243 -252 -336 -589 -232 -843 32 -79 79 -146 141 -201 49 -43 160 -104 209 -114 80 -17 174 -25 223 -19 91 10 104 13 138 23 17 5 32 8 32 6 0 -4 62 22 150 63 19 9 67 37 105 63 181 122 322 297 395 493 158 420 -77 814 -490 821 -52 1 -113 -2 -135 -6z m248 -34 c186 -39 338 -184 382 -366 24 -96 16 -275 -15 -369 -166 -499 -730 -804 -1126 -609 -160 79 -259 237 -271 434 -14 228 92 473 287 659 220 210 496 303 743 251z"/> <path d="M1117 1413 c-8 -15 -27 -68 -42 -117 -30 -101 -54 -154 -109 -243 -36 -59 -37 -62 -21 -86 25 -38 36 -38 96 0 30 19 64 39 77 44 12 4 42 17 66 28 24 11 83 32 132 46 103 30 121 43 105 74 -7 11 -16 21 -22 21 -36 0 -189 143 -223 208 -8 16 -21 34 -30 41 -12 10 -17 8 -29 -16z m127 -149 c34 -34 88 -76 120 -94 l59 -34 -64 -13 c-113 -22 -264 -85 -337 -140 -28 -21 -34 -22 -52 -10 -19 13 -19 14 6 48 57 76 128 248 150 363 l7 39 25 -49 c13 -26 52 -76 86 -110z"/> <path d="M597 682 c-157 -157 -247 -255 -247 -267 1 -39 39 -68 73 -56 25 9 497 483 497 499 0 15 -53 72 -67 72 -5 0 -120 -112 -256 -248z m66 -64 c-131 -131 -246 -238 -255 -238 -9 0 -21 8 -27 18 -8 14 29 57 232 262 l242 245 23 -24 24 -24 -239 -239z"/> <path d="M606 1138 c3 -5 10 -6 15 -3 13 9 11 12 -6 12 -8 0 -12 -4 -9 -9z"/> </g> </svg> 